<svg width="63" height="18" viewBox="0 0 63 18" fill="none" xmlns="http://www.w3.org/2000/svg">
<g id="Group 2">
<g id="Group 1">
<path id="Vector 1" d="M1.2063 10.3547L8.4322 4.31444L9.67147 2.28882e-05" stroke="white" stroke-width="3.41614"/>
<path id="Vector 2" d="M15.3587 7.64532L8.1328 13.6856L6.89353 18" stroke="white" stroke-width="3.41614"/>
</g>
<g id="Rway">
<path id="Vector" d="M55.8268 18.028C55.5383 18.028 55.2712 18.0046 55.0256 17.9578C54.7838 17.915 54.5908 17.8643 54.4465 17.8058L54.9378 16.1565C55.2458 16.2462 55.5207 16.2891 55.7625 16.2852C56.0042 16.2813 56.2167 16.2052 56.4 16.0571C56.5871 15.9128 56.745 15.6711 56.8737 15.3318L57.055 14.8464L53.7974 5.67591H56.0432L58.1136 12.4602H58.2072L60.2834 5.67591H62.5351L58.9382 15.7471C58.7706 16.2228 58.5483 16.6302 58.2715 16.9694C57.9947 17.3126 57.6554 17.5738 57.2538 17.7531C56.8561 17.9364 56.3805 18.028 55.8268 18.028Z" fill="white"/>
<path id="Vector_2" d="M47.0176 14.8406C46.4484 14.8406 45.9356 14.7392 45.4795 14.5364C45.0272 14.3298 44.6685 14.0257 44.4033 13.6241C44.1421 13.2225 44.0115 12.7273 44.0115 12.1385C44.0115 11.6317 44.1051 11.2125 44.2922 10.8811C44.4794 10.5497 44.7347 10.2845 45.0584 10.0857C45.382 9.88685 45.7465 9.73673 46.152 9.63536C46.5614 9.53009 46.9845 9.45405 47.4212 9.40727C47.9475 9.35268 48.3745 9.30394 48.702 9.26105C49.0295 9.21427 49.2674 9.14408 49.4155 9.05051C49.5676 8.95303 49.6436 8.80292 49.6436 8.60017V8.56508C49.6436 8.12449 49.513 7.78332 49.2518 7.54158C48.9905 7.29984 48.6143 7.17897 48.123 7.17897C47.6044 7.17897 47.1931 7.29205 46.889 7.51819C46.5887 7.74433 46.386 8.01142 46.2807 8.31944L44.3039 8.03871C44.4599 7.49285 44.7172 7.03666 45.0759 6.67015C45.4346 6.29974 45.8733 6.02291 46.3918 5.83966C46.9104 5.65251 47.4836 5.55893 48.1113 5.55893C48.5441 5.55893 48.9749 5.60962 49.4038 5.71099C49.8327 5.81237 50.2246 5.98002 50.5794 6.21396C50.9342 6.44401 51.2188 6.75788 51.4333 7.15558C51.6516 7.55328 51.7608 8.05041 51.7608 8.64696V14.6593H49.7255V13.4252H49.6553C49.5266 13.6747 49.3453 13.9087 49.1114 14.127C48.8814 14.3415 48.5909 14.515 48.24 14.6476C47.893 14.7762 47.4855 14.8406 47.0176 14.8406ZM47.5674 13.2848C47.9924 13.2848 48.3608 13.201 48.6728 13.0334C48.9847 12.8618 49.2245 12.6357 49.3921 12.3549C49.5637 12.0742 49.6495 11.7681 49.6495 11.4367V10.3781C49.5832 10.4327 49.4701 10.4834 49.3102 10.5302C49.1543 10.577 48.9788 10.6179 48.7839 10.653C48.5889 10.6881 48.3959 10.7193 48.2049 10.7466C48.0138 10.7739 47.8481 10.7973 47.7077 10.8168C47.3919 10.8597 47.1092 10.9298 46.8597 11.0273C46.6102 11.1248 46.4133 11.2613 46.269 11.4367C46.1247 11.6083 46.0526 11.8305 46.0526 12.1034C46.0526 12.4933 46.1949 12.7877 46.4796 12.9866C46.7642 13.1854 47.1268 13.2848 47.5674 13.2848Z" fill="white"/>
<path id="Vector_3" d="M32.9045 14.6593L30.3663 5.67591H32.5244L34.1035 11.9923H34.1854L35.7996 5.67591H37.9343L39.5485 11.9572H39.6362L41.1919 5.67591H43.3559L40.8118 14.6593H38.6069L36.9225 8.58848H36.7997L35.1153 14.6593H32.9045Z" fill="white"/>
<path id="Vector_4" d="M20.5574 14.6592V2.68143H25.0491C25.9693 2.68143 26.7413 2.84129 27.3651 3.16101C27.9929 3.48073 28.4666 3.92912 28.7863 4.50618C29.1099 5.07934 29.2718 5.74802 29.2718 6.51223C29.2718 7.28033 29.108 7.94707 28.7805 8.51243C28.4569 9.07389 27.9792 9.50863 27.3476 9.81665C26.7159 10.1208 25.94 10.2728 25.0199 10.2728H21.8207V8.47149H24.7274C25.2655 8.47149 25.7061 8.39741 26.0492 8.24924C26.3923 8.09718 26.6458 7.87689 26.8095 7.58836C26.9772 7.29593 27.061 6.93722 27.061 6.51223C27.061 6.08723 26.9772 5.72462 26.8095 5.4244C26.6419 5.12027 26.3865 4.89023 26.0434 4.73427C25.7002 4.57441 25.2577 4.49448 24.7157 4.49448H22.7272V14.6592H20.5574ZM26.7452 9.2318L29.7104 14.6592H27.2891L24.3765 9.2318H26.7452Z" fill="white"/>
</g>
</g>
</svg>
