<svg width="223" height="64" viewBox="0 0 223 64" fill="none" xmlns="http://www.w3.org/2000/svg">
<g id="Group 2">
<g id="Group 1">
<path id="Vector 1" d="M3.95573 36.8167L29.6478 15.3402L34.0541 0" stroke="white" stroke-width="12.1463"/>
<path id="Vector 2" d="M54.2754 27.1833L28.5833 48.6598L24.177 64" stroke="white" stroke-width="12.1463"/>
</g>
<g id="Rway">
<path id="Vector" d="M198.162 64.0993C197.136 64.0993 196.187 64.0161 195.313 63.8497C194.454 63.6973 193.768 63.517 193.255 63.3091L195.001 57.4449C196.097 57.7638 197.074 57.9163 197.933 57.9024C198.793 57.8886 199.548 57.6182 200.2 57.0914C200.865 56.5785 201.427 55.719 201.884 54.5129L202.529 52.7869L190.946 20.1807H198.932L206.293 44.3026H206.626L214.008 20.1807H222.014L209.225 55.9893C208.629 57.6806 207.839 59.1293 206.854 60.3354C205.87 61.5554 204.664 62.4842 203.236 63.1219C201.822 63.7735 200.131 64.0993 198.162 64.0993Z" fill="white"/>
<path id="Vector_2" d="M166.84 52.766C164.816 52.766 162.993 52.4056 161.371 51.6847C159.763 50.9499 158.488 49.8686 157.545 48.4407C156.616 47.0128 156.152 45.2521 156.152 43.1588C156.152 41.3566 156.484 39.8663 157.15 38.6879C157.815 37.5095 158.723 36.5668 159.874 35.8598C161.025 35.1528 162.321 34.6191 163.763 34.2586C165.218 33.8843 166.722 33.614 168.275 33.4476C170.147 33.2535 171.665 33.0803 172.829 32.9278C173.994 32.7614 174.839 32.5119 175.366 32.1791C175.907 31.8326 176.177 31.2988 176.177 30.5779V30.4532C176.177 28.8866 175.713 27.6736 174.784 26.8141C173.855 25.9546 172.517 25.5248 170.77 25.5248C168.927 25.5248 167.464 25.9268 166.383 26.7309C165.315 27.535 164.594 28.4846 164.22 29.5798L157.191 28.5816C157.746 26.6408 158.661 25.0188 159.936 23.7157C161.212 22.3987 162.771 21.4144 164.615 20.7628C166.459 20.0974 168.497 19.7646 170.729 19.7646C172.268 19.7646 173.8 19.9449 175.325 20.3053C176.849 20.6658 178.243 21.2619 179.504 22.0937C180.766 22.9116 181.778 24.0276 182.54 25.4416C183.317 26.8557 183.705 28.6232 183.705 30.7443V52.1214H176.468V47.7337H176.219C175.761 48.6209 175.117 49.4527 174.285 50.229C173.467 50.9915 172.434 51.6084 171.186 52.0798C169.953 52.5373 168.504 52.766 166.84 52.766ZM168.795 47.2346C170.306 47.2346 171.616 46.9365 172.725 46.3404C173.834 45.7304 174.687 44.9264 175.283 43.9282C175.893 42.9301 176.198 41.8418 176.198 40.6634V36.8996C175.962 37.0936 175.56 37.2739 174.992 37.4402C174.437 37.6066 173.813 37.7521 173.12 37.8769C172.427 38.0017 171.741 38.1126 171.062 38.2096C170.382 38.3067 169.793 38.3899 169.294 38.4592C168.171 38.6117 167.166 38.8612 166.279 39.2078C165.392 39.5544 164.691 40.0396 164.179 40.6634C163.666 41.2734 163.409 42.0636 163.409 43.034C163.409 44.4204 163.915 45.467 164.927 46.174C165.939 46.8811 167.228 47.2346 168.795 47.2346Z" fill="white"/>
<path id="Vector_3" d="M116.66 52.1215L107.635 20.1807H115.308L120.923 42.639H121.214L126.954 20.1807H134.544L140.283 42.5143H140.595L146.126 20.1807H153.82L144.775 52.1215H136.935L130.946 30.5365H130.509L124.521 52.1215H116.66Z" fill="white"/>
<path id="Vector_4" d="M72.7598 52.1214V9.53369H88.7302C92.0019 9.53369 94.7469 10.1021 96.965 11.2389C99.1969 12.3756 100.881 13.9699 102.018 16.0217C103.169 18.0596 103.744 20.4371 103.744 23.1543C103.744 25.8853 103.162 28.2559 101.997 30.2661C100.847 32.2624 99.1484 33.8082 96.9026 34.9034C94.6567 35.9847 91.898 36.5253 88.6262 36.5253H77.2515V30.1205H87.5865C89.4996 30.1205 91.0662 29.8571 92.2861 29.3303C93.5061 28.7897 94.4072 28.0064 94.9895 26.9805C95.5856 25.9408 95.8836 24.6654 95.8836 23.1543C95.8836 21.6432 95.5856 20.3539 94.9895 19.2865C94.3933 18.2051 93.4853 17.3872 92.2653 16.8327C91.0454 16.2643 89.4719 15.9801 87.5449 15.9801H80.4747V52.1214H72.7598ZM94.7607 32.8239L105.304 52.1214H96.6946L86.3388 32.8239H94.7607Z" fill="white"/>
</g>
</g>
</svg>
